0
SECTION
2
HEADER
9
$ACADVER
1
AC1009
0
ENDSEC
0
SECTION
2
TABLES
0
TABLE
2
LAYER
70
4
0
LAYER
2
0
70
0
62
7
6
CONTINUOUS
0
LAYER
2
dims
70
0
62
8
6
CONTINUOUS
0
LAYER
2
labels
70
0
62
7
6
CONTINUOUS
0
LAYER
2
walls
70
0
62
7
6
CONTINUOUS
0
ENDTAB
0
ENDSEC
0
SECTION
2
ENTITIES
0
POLYLINE
8
walls
66
1
70
1
0
VERTEX
8
walls
10
2700
20
100
30
0
0
VERTEX
8
walls
10
100
20
100
30
0
0
VERTEX
8
walls
10
100
20
4100
30
0
0
VERTEX
8
walls
10
4600
20
4100
30
0
0
VERTEX
8
walls
10
4600
20
4300
30
0
0
VERTEX
8
walls
10
-100
20
4300
30
0
0
VERTEX
8
walls
10
-100
20
-100
30
0
0
VERTEX
8
walls
10
2700
20
-100
30
0
0
SEQEND
0
POLYLINE
8
walls
66
1
70
1
0
VERTEX
8
walls
10
7100
20
4300
30
0
0
VERTEX
8
walls
10
5800
20
4300
30
0
0
VERTEX
8
walls
10
5800
20
4100
30
0
0
VERTEX
8
walls
10
6900
20
4100
30
0
0
VERTEX
8
walls
10
6900
20
2800
30
0
0
VERTEX
8
walls
10
7100
20
2800
30
0
0
SEQEND
0
POLYLINE
8
walls
66
1
70
1
0
VERTEX
8
walls
10
7100
20
1400
30
0
0
VERTEX
8
walls
10
6900
20
1400
30
0
0
VERTEX
8
walls
10
6900
20
100
30
0
0
VERTEX
8
walls
10
4300
20
100
30
0
0
VERTEX
8
walls
10
4300
20
-100
30
0
0
VERTEX
8
walls
10
7100
20
-100
30
0
0
SEQEND
0
LINE
8
walls
10
2700
20
0
30
0
11
2700
21
1600
31
0
0
ARC
8
walls
10
2700
20
0
30
0
40
1600
50
0
51
90
0
LINE
8
walls
10
7000
20
1400
30
0
11
7000
21
2800
31
0
0
LINE
8
walls
10
7100
20
1400
30
0
11
6900
21
1400
31
0
0
LINE
8
walls
10
7100
20
2800
30
0
11
6900
21
2800
31
0
0
LINE
8
walls
10
5800
20
4200
30
0
11
4600
21
4200
31
0
0
LINE
8
walls
10
5800
20
4300
30
0
11
5800
21
4100
31
0
0
LINE
8
walls
10
4600
20
4300
30
0
11
4600
21
4100
31
0
0
POLYLINE
8
walls
66
1
70
1
0
VERTEX
8
walls
10
4260
20
4200
30
0
0
VERTEX
8
walls
10
4140
20
4200
30
0
0
VERTEX
8
walls
10
4140
20
1950
30
0
0
VERTEX
8
walls
10
4260
20
1950
30
0
0
SEQEND
0
POLYLINE
8
walls
66
1
70
1
0
VERTEX
8
walls
10
4260
20
1050
30
0
0
VERTEX
8
walls
10
4140
20
1050
30
0
0
VERTEX
8
walls
10
4140
20
0
30
0
0
VERTEX
8
walls
10
4260
20
0
30
0
0
SEQEND
0
LINE
8
walls
10
4200
20
1050
30
0
11
3300
21
1050
31
0
0
ARC
8
walls
10
4200
20
1050
30
0
40
900
50
90
51
180
0
LINE
8
dims
10
0
20
-108
30
0
11
0
21
-1035
31
0
0
LINE
8
dims
10
7000
20
-108
30
0
11
7000
21
-1035
31
0
0
LINE
8
dims
10
-135
20
-900
30
0
11
7135
21
-900
31
0
0
LINE
8
dims
10
-57.275649
20
-957.275649
30
0
11
57.275649
21
-842.724351
31
0
0
LINE
8
dims
10
6942.724351
20
-957.275649
30
0
11
7057.275649
21
-842.724351
31
0
0
TEXT
8
dims
10
3074.75
20
-1008
30
0
40
270
1
7000
50
0
0
LINE
8
dims
10
0
20
-60
30
0
11
0
21
-575
31
0
0
LINE
8
dims
10
4200
20
-60
30
0
11
4200
21
-575
31
0
0
LINE
8
dims
10
-75
20
-500
30
0
11
4275
21
-500
31
0
0
LINE
8
dims
10
-31.819805
20
-531.819805
30
0
11
31.819805
21
-468.180195
31
0
0
LINE
8
dims
10
4168.180195
20
-531.819805
30
0
11
4231.819805
21
-468.180195
31
0
0
TEXT
8
dims
10
1863.75
20
-560
30
0
40
150
1
4200
50
0
0
LINE
8
dims
10
4200
20
-60
30
0
11
4200
21
-575
31
0
0
LINE
8
dims
10
7000
20
-60
30
0
11
7000
21
-575
31
0
0
LINE
8
dims
10
4125
20
-500
30
0
11
7075
21
-500
31
0
0
LINE
8
dims
10
4168.180195
20
-531.819805
30
0
11
4231.819805
21
-468.180195
31
0
0
LINE
8
dims
10
6968.180195
20
-531.819805
30
0
11
7031.819805
21
-468.180195
31
0
0
TEXT
8
dims
10
5363.75
20
-560
30
0
40
150
1
2800
50
0
0
LINE
8
dims
10
7084
20
0
30
0
11
7805
21
0
31
0
0
LINE
8
dims
10
7084
20
4200
30
0
11
7805
21
4200
31
0
0
LINE
8
dims
10
7700
20
-105
30
0
11
7700
21
4305
31
0
0
LINE
8
dims
10
7744.547727
20
-44.547727
30
0
11
7655.452273
21
44.547727
31
0
0
LINE
8
dims
10
7744.547727
20
4155.452273
30
0
11
7655.452273
21
4244.547727
31
0
0
TEXT
8
dims
10
7453.25
20
2100
30
0
40
210
1
4200
50
90
0
TEXT
8
labels
10
1500
20
2100
30
0
40
260
1
SHOWROOM
50
0
0
TEXT
8
labels
10
5000
20
2100
30
0
40
260
1
STUDIO
50
0
0
TEXT
8
labels
10
1700
20
-1800
30
0
40
320
1
AGENT GENERATED PLAN
50
0
0
ENDSEC
0
EOF
