0
SECTION
2
HEADER
9
$ACADVER
1
AC1009
0
ENDSEC
0
SECTION
2
TABLES
0
TABLE
2
LAYER
70
3
0
LAYER
2
0
70
0
62
7
6
CONTINUOUS
0
LAYER
2
model
70
0
62
7
6
CONTINUOUS
0
LAYER
2
section
70
0
62
7
6
CONTINUOUS
0
ENDTAB
0
ENDSEC
0
SECTION
2
ENTITIES
0
POLYLINE
8
section
66
1
70
1
0
VERTEX
8
section
10
112.694592
20
0.06077
30
0
0
VERTEX
8
section
10
113.389183
20
0.12154
30
0
0
VERTEX
8
section
10
114.062672
20
0.302
30
0
0
VERTEX
8
section
10
114.73616
20
0.48246
30
0
0
VERTEX
8
section
10
115.36808
20
0.77713
30
0
0
VERTEX
8
section
10
116
20
1.0718
30
0
0
VERTEX
8
section
10
116.571152
20
1.47172
30
0
0
VERTEX
8
section
10
117.142303
20
1.87164
30
0
0
VERTEX
8
section
10
117.63533
20
2.36467
30
0
0
VERTEX
8
section
10
118.128357
20
2.8577
30
0
0
VERTEX
8
section
10
118.528278
20
3.42885
30
0
0
VERTEX
8
section
10
118.9282
20
4
30
0
0
VERTEX
8
section
10
119.22287
20
4.63192
30
0
0
VERTEX
8
section
10
119.51754
20
5.26384
30
0
0
VERTEX
8
section
10
119.698002
20
5.93733
30
0
0
VERTEX
8
section
10
119.878464
20
6.61082
30
0
0
VERTEX
8
section
10
119.939232
20
7.30541
30
0
0
VERTEX
8
section
10
120
20
8
30
0
0
VERTEX
8
section
10
120
20
40
30
0
0
VERTEX
8
section
10
120
20
72
30
0
0
VERTEX
8
section
10
119.939232
20
72.694592
30
0
0
VERTEX
8
section
10
119.878464
20
73.389183
30
0
0
VERTEX
8
section
10
119.698002
20
74.062672
30
0
0
VERTEX
8
section
10
119.51754
20
74.73616
30
0
0
VERTEX
8
section
10
119.22287
20
75.36808
30
0
0
VERTEX
8
section
10
118.9282
20
76
30
0
0
VERTEX
8
section
10
118.528278
20
76.571152
30
0
0
VERTEX
8
section
10
118.128357
20
77.142303
30
0
0
VERTEX
8
section
10
117.63533
20
77.63533
30
0
0
VERTEX
8
section
10
117.142303
20
78.128357
30
0
0
VERTEX
8
section
10
116.571152
20
78.528278
30
0
0
VERTEX
8
section
10
116
20
78.9282
30
0
0
VERTEX
8
section
10
115.36808
20
79.22287
30
0
0
VERTEX
8
section
10
114.73616
20
79.51754
30
0
0
VERTEX
8
section
10
114.062672
20
79.698002
30
0
0
VERTEX
8
section
10
113.389183
20
79.878464
30
0
0
VERTEX
8
section
10
112.694592
20
79.939232
30
0
0
VERTEX
8
section
10
112
20
80
30
0
0
VERTEX
8
section
10
60
20
80
30
0
0
VERTEX
8
section
10
8
20
80
30
0
0
VERTEX
8
section
10
7.30541
20
79.939232
30
0
0
VERTEX
8
section
10
6.61082
20
79.878464
30
0
0
VERTEX
8
section
10
5.93733
20
79.698002
30
0
0
VERTEX
8
section
10
5.26384
20
79.51754
30
0
0
VERTEX
8
section
10
4.63192
20
79.22287
30
0
0
VERTEX
8
section
10
4
20
78.9282
30
0
0
VERTEX
8
section
10
3.42885
20
78.528278
30
0
0
VERTEX
8
section
10
2.8577
20
78.128357
30
0
0
VERTEX
8
section
10
2.36467
20
77.63533
30
0
0
VERTEX
8
section
10
1.87164
20
77.142303
30
0
0
VERTEX
8
section
10
1.47172
20
76.571152
30
0
0
VERTEX
8
section
10
1.0718
20
76
30
0
0
VERTEX
8
section
10
0.77713
20
75.36808
30
0
0
VERTEX
8
section
10
0.48246
20
74.73616
30
0
0
VERTEX
8
section
10
0.302
20
74.062672
30
0
0
VERTEX
8
section
10
0.12154
20
73.389183
30
0
0
VERTEX
8
section
10
0.06077
20
72.694592
30
0
0
VERTEX
8
section
10
0
20
72
30
0
0
VERTEX
8
section
10
0
20
40
30
0
0
VERTEX
8
section
10
0
20
8
30
0
0
VERTEX
8
section
10
0.06077
20
7.30541
30
0
0
VERTEX
8
section
10
0.12154
20
6.61082
30
0
0
VERTEX
8
section
10
0.302
20
5.93733
30
0
0
VERTEX
8
section
10
0.48246
20
5.26384
30
0
0
VERTEX
8
section
10
0.77713
20
4.63192
30
0
0
VERTEX
8
section
10
1.0718
20
4
30
0
0
VERTEX
8
section
10
1.47172
20
3.42885
30
0
0
VERTEX
8
section
10
1.87164
20
2.8577
30
0
0
VERTEX
8
section
10
2.36467
20
2.36467
30
0
0
VERTEX
8
section
10
2.8577
20
1.87164
30
0
0
VERTEX
8
section
10
3.42885
20
1.47172
30
0
0
VERTEX
8
section
10
4
20
1.0718
30
0
0
VERTEX
8
section
10
4.63192
20
0.77713
30
0
0
VERTEX
8
section
10
5.26384
20
0.48246
30
0
0
VERTEX
8
section
10
5.93733
20
0.302
30
0
0
VERTEX
8
section
10
6.61082
20
0.12154
30
0
0
VERTEX
8
section
10
7.30541
20
0.06077
30
0
0
VERTEX
8
section
10
8
20
0
30
0
0
VERTEX
8
section
10
60
20
0
30
0
0
VERTEX
8
section
10
112
20
0
30
0
0
SEQEND
0
POLYLINE
8
section
66
1
70
1
0
VERTEX
8
section
10
14.13763
20
60.109255
30
0
0
VERTEX
8
section
10
13.56598
20
60.210049
30
0
0
VERTEX
8
section
10
13.03299
20
60.439959
30
0
0
VERTEX
8
section
10
12.5
20
60.669868
30
0
0
VERTEX
8
section
10
12.034395
20
61.016499
30
0
0
VERTEX
8
section
10
11.56879
20
61.363129
30
0
0
VERTEX
8
section
10
11.195675
20
61.807795
30
0
0
VERTEX
8
section
10
10.82256
20
62.25246
30
0
0
VERTEX
8
section
10
10.56205
20
62.771181
30
0
0
VERTEX
8
section
10
10.30154
20
63.289902
30
0
0
VERTEX
8
section
10
10.167675
20
63.854717
30
0
0
VERTEX
8
section
10
10.03381
20
64.419533
30
0
0
VERTEX
8
section
10
10.03381
20
65
30
0
0
VERTEX
8
section
10
10.03381
20
65.580467
30
0
0
VERTEX
8
section
10
10.167675
20
66.145283
30
0
0
VERTEX
8
section
10
10.30154
20
66.710098
30
0
0
VERTEX
8
section
10
10.56205
20
67.228821
30
0
0
VERTEX
8
section
10
10.82256
20
67.747543
30
0
0
VERTEX
8
section
10
11.195675
20
68.192207
30
0
0
VERTEX
8
section
10
11.56879
20
68.636871
30
0
0
VERTEX
8
section
10
12.034395
20
68.983494
30
0
0
VERTEX
8
section
10
12.5
20
69.330116
30
0
0
VERTEX
8
section
10
13.03299
20
69.560032
30
0
0
VERTEX
8
section
10
13.56598
20
69.789948
30
0
0
VERTEX
8
section
10
14.13763
20
69.890743
30
0
0
VERTEX
8
section
10
14.70928
20
69.991539
30
0
0
VERTEX
8
section
10
15.28876
20
69.95779
30
0
0
VERTEX
8
section
10
15.86824
20
69.924042
30
0
0
VERTEX
8
section
10
16.42432
20
69.757561
30
0
0
VERTEX
8
section
10
16.9804
20
69.59108
30
0
0
VERTEX
8
section
10
17.483095
20
69.300846
30
0
0
VERTEX
8
section
10
17.98579
20
69.010612
30
0
0
VERTEX
8
section
10
18.408005
20
68.612278
30
0
0
VERTEX
8
section
10
18.830219
20
68.213943
30
0
0
VERTEX
8
section
10
19.14919
20
67.728973
30
0
0
VERTEX
8
section
10
19.468161
20
67.244003
30
0
0
VERTEX
8
section
10
19.66669
20
66.698544
30
0
0
VERTEX
8
section
10
19.865219
20
66.153084
30
0
0
VERTEX
8
section
10
19.93261
20
65.576542
30
0
0
VERTEX
8
section
10
20
20
65
30
0
0
VERTEX
8
section
10
19.93261
20
64.42346
30
0
0
VERTEX
8
section
10
19.865219
20
63.84692
30
0
0
VERTEX
8
section
10
19.66669
20
63.30146
30
0
0
VERTEX
8
section
10
19.468161
20
62.756001
30
0
0
VERTEX
8
section
10
19.14919
20
62.27103
30
0
0
VERTEX
8
section
10
18.830219
20
61.78606
30
0
0
VERTEX
8
section
10
18.408005
20
61.38772
30
0
0
VERTEX
8
section
10
17.98579
20
60.98938
30
0
0
VERTEX
8
section
10
17.483095
20
60.69915
30
0
0
VERTEX
8
section
10
16.9804
20
60.40892
30
0
0
VERTEX
8
section
10
16.42432
20
60.242439
30
0
0
VERTEX
8
section
10
15.86824
20
60.075958
30
0
0
VERTEX
8
section
10
15.28876
20
60.04221
30
0
0
VERTEX
8
section
10
14.70928
20
60.008461
30
0
0
SEQEND
0
POLYLINE
8
section
66
1
70
1
0
VERTEX
8
section
10
104.137627
20
60.109255
30
0
0
VERTEX
8
section
10
103.565987
20
60.210049
30
0
0
VERTEX
8
section
10
103.032993
20
60.439959
30
0
0
VERTEX
8
section
10
102.5
20
60.669868
30
0
0
VERTEX
8
section
10
102.034393
20
61.016499
30
0
0
VERTEX
8
section
10
101.568787
20
61.363129
30
0
0
VERTEX
8
section
10
101.195675
20
61.807795
30
0
0
VERTEX
8
section
10
100.822563
20
62.25246
30
0
0
VERTEX
8
section
10
100.56205
20
62.771181
30
0
0
VERTEX
8
section
10
100.301537
20
63.289902
30
0
0
VERTEX
8
section
10
100.167675
20
63.854717
30
0
0
VERTEX
8
section
10
100.033813
20
64.419533
30
0
0
VERTEX
8
section
10
100.033813
20
65
30
0
0
VERTEX
8
section
10
100.033813
20
65.580467
30
0
0
VERTEX
8
section
10
100.167675
20
66.145283
30
0
0
VERTEX
8
section
10
100.301537
20
66.710098
30
0
0
VERTEX
8
section
10
100.56205
20
67.228821
30
0
0
VERTEX
8
section
10
100.822563
20
67.747543
30
0
0
VERTEX
8
section
10
101.195675
20
68.192207
30
0
0
VERTEX
8
section
10
101.568787
20
68.636871
30
0
0
VERTEX
8
section
10
102.034393
20
68.983494
30
0
0
VERTEX
8
section
10
102.5
20
69.330116
30
0
0
VERTEX
8
section
10
103.032993
20
69.560032
30
0
0
VERTEX
8
section
10
103.565987
20
69.789948
30
0
0
VERTEX
8
section
10
104.137627
20
69.890743
30
0
0
VERTEX
8
section
10
104.709267
20
69.991539
30
0
0
VERTEX
8
section
10
105.288754
20
69.95779
30
0
0
VERTEX
8
section
10
105.86824
20
69.924042
30
0
0
VERTEX
8
section
10
106.42432
20
69.757561
30
0
0
VERTEX
8
section
10
106.9804
20
69.59108
30
0
0
VERTEX
8
section
10
107.483093
20
69.300846
30
0
0
VERTEX
8
section
10
107.985786
20
69.010612
30
0
0
VERTEX
8
section
10
108.408005
20
68.612278
30
0
0
VERTEX
8
section
10
108.830223
20
68.213943
30
0
0
VERTEX
8
section
10
109.149193
20
67.728973
30
0
0
VERTEX
8
section
10
109.468163
20
67.244003
30
0
0
VERTEX
8
section
10
109.666695
20
66.698544
30
0
0
VERTEX
8
section
10
109.865227
20
66.153084
30
0
0
VERTEX
8
section
10
109.932613
20
65.576542
30
0
0
VERTEX
8
section
10
110
20
65
30
0
0
VERTEX
8
section
10
109.932613
20
64.42346
30
0
0
VERTEX
8
section
10
109.865227
20
63.84692
30
0
0
VERTEX
8
section
10
109.666695
20
63.30146
30
0
0
VERTEX
8
section
10
109.468163
20
62.756001
30
0
0
VERTEX
8
section
10
109.149193
20
62.27103
30
0
0
VERTEX
8
section
10
108.830223
20
61.78606
30
0
0
VERTEX
8
section
10
108.408005
20
61.38772
30
0
0
VERTEX
8
section
10
107.985786
20
60.98938
30
0
0
VERTEX
8
section
10
107.483093
20
60.69915
30
0
0
VERTEX
8
section
10
106.9804
20
60.40892
30
0
0
VERTEX
8
section
10
106.42432
20
60.242439
30
0
0
VERTEX
8
section
10
105.86824
20
60.075958
30
0
0
VERTEX
8
section
10
105.288754
20
60.04221
30
0
0
VERTEX
8
section
10
104.709267
20
60.008461
30
0
0
SEQEND
0
POLYLINE
8
section
66
1
70
1
0
VERTEX
8
section
10
40
20
30.017075
30
0
0
VERTEX
8
section
10
40
20
30.034149
30
0
0
VERTEX
8
section
10
39.587105
20
30.034149
30
0
0
VERTEX
8
section
10
39.17421
20
30.034149
30
0
0
VERTEX
8
section
10
38.359674
20
30.170074
30
0
0
VERTEX
8
section
10
37.545139
20
30.306
30
0
0
VERTEX
8
section
10
36.764095
20
30.574135
30
0
0
VERTEX
8
section
10
35.983051
20
30.84227
30
0
0
VERTEX
8
section
10
35.256786
20
31.2353
30
0
0
VERTEX
8
section
10
34.530521
20
31.62833
30
0
0
VERTEX
8
section
10
33.878851
20
32.135546
30
0
0
VERTEX
8
section
10
33.22718
20
32.642761
30
0
0
VERTEX
8
section
10
32.667891
20
33.250315
30
0
0
VERTEX
8
section
10
32.108601
20
33.857868
30
0
0
VERTEX
8
section
10
31.65693
20
34.549194
30
0
0
VERTEX
8
section
10
31.205259
20
35.24052
30
0
0
VERTEX
8
section
10
30.873545
20
35.996765
30
0
0
VERTEX
8
section
10
30.54183
20
36.75301
30
0
0
VERTEX
8
section
10
30.33911
20
37.55353
30
0
0
VERTEX
8
section
10
30.136391
20
38.35405
30
0
0
VERTEX
8
section
10
30.068195
20
39.177025
30
0
0
VERTEX
8
section
10
30
20
40
30
0
0
VERTEX
8
section
10
30.068195
20
40.822975
30
0
0
VERTEX
8
section
10
30.136391
20
41.64595
30
0
0
VERTEX
8
section
10
30.33911
20
42.44647
30
0
0
VERTEX
8
section
10
30.54183
20
43.24699
30
0
0
VERTEX
8
section
10
30.873545
20
44.003235
30
0
0
VERTEX
8
section
10
31.205259
20
44.75948
30
0
0
VERTEX
8
section
10
31.65693
20
45.450806
30
0
0
VERTEX
8
section
10
32.108601
20
46.142132
30
0
0
VERTEX
8
section
10
32.667891
20
46.749685
30
0
0
VERTEX
8
section
10
33.22718
20
47.357239
30
0
0
VERTEX
8
section
10
33.878851
20
47.864454
30
0
0
VERTEX
8
section
10
34.530521
20
48.37167
30
0
0
VERTEX
8
section
10
35.256786
20
48.7647
30
0
0
VERTEX
8
section
10
35.983051
20
49.15773
30
0
0
VERTEX
8
section
10
36.764095
20
49.425865
30
0
0
VERTEX
8
section
10
37.545139
20
49.694
30
0
0
VERTEX
8
section
10
38.359674
20
49.82992
30
0
0
VERTEX
8
section
10
39.17421
20
49.965839
30
0
0
VERTEX
8
section
10
39.587105
20
49.965839
30
0
0
VERTEX
8
section
10
40
20
49.965839
30
0
0
VERTEX
8
section
10
40
20
49.98292
30
0
0
VERTEX
8
section
10
40
20
50
30
0
0
VERTEX
8
section
10
42.555876
20
50
30
0
0
VERTEX
8
section
10
45.111752
20
50
30
0
0
VERTEX
8
section
10
44.761646
20
49.5
30
0
0
VERTEX
8
section
10
44.729128
20
49.453561
30
0
0
VERTEX
8
section
10
44.411541
20
49
30
0
0
VERTEX
8
section
10
43.319531
20
46.658179
30
0
0
VERTEX
8
section
10
43.085529
20
46.156361
30
0
0
VERTEX
8
section
10
42.416767
20
43.660499
30
0
0
VERTEX
8
section
10
42.27346
20
43.125671
30
0
0
VERTEX
8
section
10
42.048258
20
40.551589
30
0
0
VERTEX
8
section
10
42
20
40
30
0
0
VERTEX
8
section
10
42.225203
20
37.425918
30
0
0
VERTEX
8
section
10
42.27346
20
36.874329
30
0
0
VERTEX
8
section
10
42.942223
20
34.378467
30
0
0
VERTEX
8
section
10
43.085529
20
33.843639
30
0
0
VERTEX
8
section
10
44.177539
20
31.501819
30
0
0
VERTEX
8
section
10
44.411541
20
31
30
0
0
VERTEX
8
section
10
44.761646
20
30.5
30
0
0
VERTEX
8
section
10
45.111752
20
30
30
0
0
VERTEX
8
section
10
42.555876
20
30
30
0
0
VERTEX
8
section
10
40
20
30
30
0
0
SEQEND
0
POLYLINE
8
section
66
1
70
1
0
VERTEX
8
section
10
59.693562
20
30.026809
30
0
0
VERTEX
8
section
10
58.263519
20
30.15192
30
0
0
VERTEX
8
section
10
57.966392
20
30.231535
30
0
0
VERTEX
8
section
10
56.5798
20
30.603069
30
0
0
VERTEX
8
section
10
56.301011
20
30.733072
30
0
0
VERTEX
8
section
10
55
20
31.33975
30
0
0
VERTEX
8
section
10
54.748021
20
31.516186
30
0
0
VERTEX
8
section
10
53.572121
20
32.33955
30
0
0
VERTEX
8
section
10
53.354608
20
32.557062
30
0
0
VERTEX
8
section
10
52.33955
20
33.572121
30
0
0
VERTEX
8
section
10
52.163113
20
33.824099
30
0
0
VERTEX
8
section
10
51.339741
20
35
30
0
0
VERTEX
8
section
10
51.20974
20
35.278788
30
0
0
VERTEX
8
section
10
50.603069
20
36.5798
30
0
0
VERTEX
8
section
10
50.523455
20
36.876927
30
0
0
VERTEX
8
section
10
50.15192
20
38.263519
30
0
0
VERTEX
8
section
10
50.125111
20
38.569957
30
0
0
VERTEX
8
section
10
50
20
40
30
0
0
VERTEX
8
section
10
50.026809
20
40.306438
30
0
0
VERTEX
8
section
10
50.15192
20
41.736481
30
0
0
VERTEX
8
section
10
50.231535
20
42.033608
30
0
0
VERTEX
8
section
10
50.603069
20
43.4202
30
0
0
VERTEX
8
section
10
50.73307
20
43.698989
30
0
0
VERTEX
8
section
10
51.339741
20
45
30
0
0
VERTEX
8
section
10
51.516178
20
45.251979
30
0
0
VERTEX
8
section
10
52.33955
20
46.427879
30
0
0
VERTEX
8
section
10
52.557062
20
46.645392
30
0
0
VERTEX
8
section
10
53.572121
20
47.66045
30
0
0
VERTEX
8
section
10
53.824099
20
47.836887
30
0
0
VERTEX
8
section
10
55
20
48.660259
30
0
0
VERTEX
8
section
10
55.278788
20
48.79026
30
0
0
VERTEX
8
section
10
56.5798
20
49.396931
30
0
0
VERTEX
8
section
10
56.876927
20
49.476545
30
0
0
VERTEX
8
section
10
58.263519
20
49.84808
30
0
0
VERTEX
8
section
10
58.569957
20
49.874889
30
0
0
VERTEX
8
section
10
60
20
50
30
0
0
VERTEX
8
section
10
60.306438
20
49.973191
30
0
0
VERTEX
8
section
10
61.736481
20
49.84808
30
0
0
VERTEX
8
section
10
62.033608
20
49.768465
30
0
0
VERTEX
8
section
10
63.4202
20
49.396931
30
0
0
VERTEX
8
section
10
63.698989
20
49.26693
30
0
0
VERTEX
8
section
10
65
20
48.660259
30
0
0
VERTEX
8
section
10
65.251979
20
48.483822
30
0
0
VERTEX
8
section
10
66.427879
20
47.66045
30
0
0
VERTEX
8
section
10
66.645392
20
47.442938
30
0
0
VERTEX
8
section
10
67.660454
20
46.427879
30
0
0
VERTEX
8
section
10
67.836891
20
46.175901
30
0
0
VERTEX
8
section
10
68.660263
20
45
30
0
0
VERTEX
8
section
10
68.790263
20
44.721212
30
0
0
VERTEX
8
section
10
69.396927
20
43.4202
30
0
0
VERTEX
8
section
10
69.476543
20
43.123073
30
0
0
VERTEX
8
section
10
69.848083
20
41.736481
30
0
0
VERTEX
8
section
10
69.874892
20
41.430043
30
0
0
VERTEX
8
section
10
70
20
40
30
0
0
VERTEX
8
section
10
69.973191
20
39.693562
30
0
0
VERTEX
8
section
10
69.848083
20
38.263519
30
0
0
VERTEX
8
section
10
69.768468
20
37.966392
30
0
0
VERTEX
8
section
10
69.396927
20
36.5798
30
0
0
VERTEX
8
section
10
69.266927
20
36.301011
30
0
0
VERTEX
8
section
10
68.660263
20
35
30
0
0
VERTEX
8
section
10
68.483826
20
34.748021
30
0
0
VERTEX
8
section
10
67.660454
20
33.572121
30
0
0
VERTEX
8
section
10
67.442941
20
33.354608
30
0
0
VERTEX
8
section
10
66.427879
20
32.33955
30
0
0
VERTEX
8
section
10
66.175901
20
32.163115
30
0
0
VERTEX
8
section
10
65
20
31.33975
30
0
0
VERTEX
8
section
10
64.721212
20
31.209748
30
0
0
VERTEX
8
section
10
63.4202
20
30.603069
30
0
0
VERTEX
8
section
10
63.123073
20
30.523455
30
0
0
VERTEX
8
section
10
61.736481
20
30.15192
30
0
0
VERTEX
8
section
10
61.430043
20
30.125111
30
0
0
VERTEX
8
section
10
60
20
30
30
0
0
SEQEND
0
POLYLINE
8
section
66
1
70
1
0
VERTEX
8
section
10
75.238358
20
30.5
30
0
0
VERTEX
8
section
10
75.270876
20
30.546439
30
0
0
VERTEX
8
section
10
75.588463
20
31
30
0
0
VERTEX
8
section
10
76.680466
20
33.341821
30
0
0
VERTEX
8
section
10
76.914467
20
33.843639
30
0
0
VERTEX
8
section
10
77.583233
20
36.339501
30
0
0
VERTEX
8
section
10
77.72654
20
36.874329
30
0
0
VERTEX
8
section
10
77.951742
20
39.448411
30
0
0
VERTEX
8
section
10
78
20
40
30
0
0
VERTEX
8
section
10
77.774797
20
42.574082
30
0
0
VERTEX
8
section
10
77.72654
20
43.125671
30
0
0
VERTEX
8
section
10
77.057774
20
45.621533
30
0
0
VERTEX
8
section
10
76.914467
20
46.156361
30
0
0
VERTEX
8
section
10
75.822464
20
48.498181
30
0
0
VERTEX
8
section
10
75.588463
20
49
30
0
0
VERTEX
8
section
10
75.238358
20
49.5
30
0
0
VERTEX
8
section
10
74.888252
20
50
30
0
0
VERTEX
8
section
10
77.444126
20
50
30
0
0
VERTEX
8
section
10
80
20
50
30
0
0
VERTEX
8
section
10
80
20
49.98292
30
0
0
VERTEX
8
section
10
80
20
49.965839
30
0
0
VERTEX
8
section
10
80.412895
20
49.965839
30
0
0
VERTEX
8
section
10
80.82579
20
49.965839
30
0
0
VERTEX
8
section
10
81.640324
20
49.82992
30
0
0
VERTEX
8
section
10
82.454857
20
49.694
30
0
0
VERTEX
8
section
10
83.235905
20
49.425865
30
0
0
VERTEX
8
section
10
84.016953
20
49.15773
30
0
0
VERTEX
8
section
10
84.743217
20
48.7647
30
0
0
VERTEX
8
section
10
85.469482
20
48.37167
30
0
0
VERTEX
8
section
10
86.121151
20
47.864454
30
0
0
VERTEX
8
section
10
86.77282
20
47.357239
30
0
0
VERTEX
8
section
10
87.332111
20
46.749685
30
0
0
VERTEX
8
section
10
87.891403
20
46.142132
30
0
0
VERTEX
8
section
10
88.343071
20
45.450806
30
0
0
VERTEX
8
section
10
88.794739
20
44.75948
30
0
0
VERTEX
8
section
10
89.126461
20
44.003235
30
0
0
VERTEX
8
section
10
89.458183
20
43.24699
30
0
0
VERTEX
8
section
10
89.660896
20
42.44647
30
0
0
VERTEX
8
section
10
89.863609
20
41.64595
30
0
0
VERTEX
8
section
10
89.931805
20
40.822975
30
0
0
VERTEX
8
section
10
90
20
40
30
0
0
VERTEX
8
section
10
89.931805
20
39.177025
30
0
0
VERTEX
8
section
10
89.863609
20
38.35405
30
0
0
VERTEX
8
section
10
89.660896
20
37.55353
30
0
0
VERTEX
8
section
10
89.458183
20
36.75301
30
0
0
VERTEX
8
section
10
89.126461
20
35.996765
30
0
0
VERTEX
8
section
10
88.794739
20
35.24052
30
0
0
VERTEX
8
section
10
88.343071
20
34.549194
30
0
0
VERTEX
8
section
10
87.891403
20
33.857868
30
0
0
VERTEX
8
section
10
87.332111
20
33.250315
30
0
0
VERTEX
8
section
10
86.77282
20
32.642761
30
0
0
VERTEX
8
section
10
86.121151
20
32.135546
30
0
0
VERTEX
8
section
10
85.469482
20
31.62833
30
0
0
VERTEX
8
section
10
84.743217
20
31.2353
30
0
0
VERTEX
8
section
10
84.016953
20
30.84227
30
0
0
VERTEX
8
section
10
83.235905
20
30.574135
30
0
0
VERTEX
8
section
10
82.454857
20
30.306
30
0
0
VERTEX
8
section
10
81.640324
20
30.170074
30
0
0
VERTEX
8
section
10
80.82579
20
30.034149
30
0
0
VERTEX
8
section
10
80.412895
20
30.034149
30
0
0
VERTEX
8
section
10
80
20
30.034149
30
0
0
VERTEX
8
section
10
80
20
30.017075
30
0
0
VERTEX
8
section
10
80
20
30
30
0
0
VERTEX
8
section
10
77.444126
20
30
30
0
0
VERTEX
8
section
10
74.888252
20
30
30
0
0
SEQEND
0
POLYLINE
8
section
66
1
70
1
0
VERTEX
8
section
10
14.13763
20
10.109255
30
0
0
VERTEX
8
section
10
13.56598
20
10.21005
30
0
0
VERTEX
8
section
10
13.03299
20
10.43996
30
0
0
VERTEX
8
section
10
12.5
20
10.66987
30
0
0
VERTEX
8
section
10
12.034395
20
11.0165
30
0
0
VERTEX
8
section
10
11.56879
20
11.36313
30
0
0
VERTEX
8
section
10
11.195675
20
11.80779
30
0
0
VERTEX
8
section
10
10.82256
20
12.25245
30
0
0
VERTEX
8
section
10
10.56205
20
12.771175
30
0
0
VERTEX
8
section
10
10.30154
20
13.2899
30
0
0
VERTEX
8
section
10
10.167675
20
13.854715
30
0
0
VERTEX
8
section
10
10.03381
20
14.41953
30
0
0
VERTEX
8
section
10
10.03381
20
15
30
0
0
VERTEX
8
section
10
10.03381
20
15.58047
30
0
0
VERTEX
8
section
10
10.167675
20
16.145285
30
0
0
VERTEX
8
section
10
10.30154
20
16.7101
30
0
0
VERTEX
8
section
10
10.56205
20
17.228825
30
0
0
VERTEX
8
section
10
10.82256
20
17.747549
30
0
0
VERTEX
8
section
10
11.195675
20
18.192209
30
0
0
VERTEX
8
section
10
11.56879
20
18.636869
30
0
0
VERTEX
8
section
10
12.034395
20
18.9835
30
0
0
VERTEX
8
section
10
12.5
20
19.33013
30
0
0
VERTEX
8
section
10
13.03299
20
19.56004
30
0
0
VERTEX
8
section
10
13.56598
20
19.789949
30
0
0
VERTEX
8
section
10
14.13763
20
19.890745
30
0
0
VERTEX
8
section
10
14.70928
20
19.991541
30
0
0
VERTEX
8
section
10
15.28876
20
19.95779
30
0
0
VERTEX
8
section
10
15.86824
20
19.92404
30
0
0
VERTEX
8
section
10
16.42432
20
19.75756
30
0
0
VERTEX
8
section
10
16.9804
20
19.59108
30
0
0
VERTEX
8
section
10
17.483095
20
19.30085
30
0
0
VERTEX
8
section
10
17.98579
20
19.01062
30
0
0
VERTEX
8
section
10
18.408005
20
18.61228
30
0
0
VERTEX
8
section
10
18.830219
20
18.21394
30
0
0
VERTEX
8
section
10
19.14919
20
17.72897
30
0
0
VERTEX
8
section
10
19.468161
20
17.243999
30
0
0
VERTEX
8
section
10
19.66669
20
16.69854
30
0
0
VERTEX
8
section
10
19.865219
20
16.15308
30
0
0
VERTEX
8
section
10
19.93261
20
15.57654
30
0
0
VERTEX
8
section
10
20
20
15
30
0
0
VERTEX
8
section
10
19.93261
20
14.42346
30
0
0
VERTEX
8
section
10
19.865219
20
13.84692
30
0
0
VERTEX
8
section
10
19.66669
20
13.30146
30
0
0
VERTEX
8
section
10
19.468161
20
12.756
30
0
0
VERTEX
8
section
10
19.14919
20
12.27103
30
0
0
VERTEX
8
section
10
18.830219
20
11.78606
30
0
0
VERTEX
8
section
10
18.408005
20
11.38772
30
0
0
VERTEX
8
section
10
17.98579
20
10.98938
30
0
0
VERTEX
8
section
10
17.483095
20
10.69915
30
0
0
VERTEX
8
section
10
16.9804
20
10.40892
30
0
0
VERTEX
8
section
10
16.42432
20
10.24244
30
0
0
VERTEX
8
section
10
15.86824
20
10.07596
30
0
0
VERTEX
8
section
10
15.28876
20
10.04221
30
0
0
VERTEX
8
section
10
14.70928
20
10.00846
30
0
0
SEQEND
0
POLYLINE
8
section
66
1
70
1
0
VERTEX
8
section
10
104.137627
20
10.109255
30
0
0
VERTEX
8
section
10
103.565987
20
10.21005
30
0
0
VERTEX
8
section
10
103.032993
20
10.43996
30
0
0
VERTEX
8
section
10
102.5
20
10.66987
30
0
0
VERTEX
8
section
10
102.034393
20
11.0165
30
0
0
VERTEX
8
section
10
101.568787
20
11.36313
30
0
0
VERTEX
8
section
10
101.195675
20
11.80779
30
0
0
VERTEX
8
section
10
100.822563
20
12.25245
30
0
0
VERTEX
8
section
10
100.56205
20
12.771175
30
0
0
VERTEX
8
section
10
100.301537
20
13.2899
30
0
0
VERTEX
8
section
10
100.167675
20
13.854715
30
0
0
VERTEX
8
section
10
100.033813
20
14.41953
30
0
0
VERTEX
8
section
10
100.033813
20
15
30
0
0
VERTEX
8
section
10
100.033813
20
15.58047
30
0
0
VERTEX
8
section
10
100.167675
20
16.145285
30
0
0
VERTEX
8
section
10
100.301537
20
16.7101
30
0
0
VERTEX
8
section
10
100.56205
20
17.228825
30
0
0
VERTEX
8
section
10
100.822563
20
17.747549
30
0
0
VERTEX
8
section
10
101.195675
20
18.192209
30
0
0
VERTEX
8
section
10
101.568787
20
18.636869
30
0
0
VERTEX
8
section
10
102.034393
20
18.9835
30
0
0
VERTEX
8
section
10
102.5
20
19.33013
30
0
0
VERTEX
8
section
10
103.032993
20
19.56004
30
0
0
VERTEX
8
section
10
103.565987
20
19.789949
30
0
0
VERTEX
8
section
10
104.137627
20
19.890745
30
0
0
VERTEX
8
section
10
104.709267
20
19.991541
30
0
0
VERTEX
8
section
10
105.288754
20
19.95779
30
0
0
VERTEX
8
section
10
105.86824
20
19.92404
30
0
0
VERTEX
8
section
10
106.42432
20
19.75756
30
0
0
VERTEX
8
section
10
106.9804
20
19.59108
30
0
0
VERTEX
8
section
10
107.483093
20
19.30085
30
0
0
VERTEX
8
section
10
107.985786
20
19.01062
30
0
0
VERTEX
8
section
10
108.408005
20
18.61228
30
0
0
VERTEX
8
section
10
108.830223
20
18.21394
30
0
0
VERTEX
8
section
10
109.149193
20
17.72897
30
0
0
VERTEX
8
section
10
109.468163
20
17.243999
30
0
0
VERTEX
8
section
10
109.666695
20
16.69854
30
0
0
VERTEX
8
section
10
109.865227
20
16.15308
30
0
0
VERTEX
8
section
10
109.932613
20
15.57654
30
0
0
VERTEX
8
section
10
110
20
15
30
0
0
VERTEX
8
section
10
109.932613
20
14.42346
30
0
0
VERTEX
8
section
10
109.865227
20
13.84692
30
0
0
VERTEX
8
section
10
109.666695
20
13.30146
30
0
0
VERTEX
8
section
10
109.468163
20
12.756
30
0
0
VERTEX
8
section
10
109.149193
20
12.27103
30
0
0
VERTEX
8
section
10
108.830223
20
11.78606
30
0
0
VERTEX
8
section
10
108.408005
20
11.38772
30
0
0
VERTEX
8
section
10
107.985786
20
10.98938
30
0
0
VERTEX
8
section
10
107.483093
20
10.69915
30
0
0
VERTEX
8
section
10
106.9804
20
10.40892
30
0
0
VERTEX
8
section
10
106.42432
20
10.24244
30
0
0
VERTEX
8
section
10
105.86824
20
10.07596
30
0
0
VERTEX
8
section
10
105.288754
20
10.04221
30
0
0
VERTEX
8
section
10
104.709267
20
10.00846
30
0
0
SEQEND
0
ENDSEC
0
EOF
