<svg xmlns="http://www.w3.org/2000/svg" viewBox="-6 -86 132 92" width="132mm" height="92mm">
<g transform="scale(1,-1)">
<rect x="-6" y="-6" width="132" height="92" fill="white"/>
<g data-layer="0">
<path d="M 113.3892,0.1215 L 114.7362,0.4825 L 116,1.0718 L 117.1423,1.8716 L 118.1284,2.8577 L 118.9282,4 L 119.5175,5.2638 L 119.8785,6.6108 L 120,8 L 120,72 L 119.8785,73.3892 L 119.5175,74.7362 L 118.9282,76 L 118.1284,77.1423 L 117.1423,78.1284 L 116,78.9282 L 114.7362,79.5175 L 113.3892,79.8785 L 112,80 L 8,80 L 6.6108,79.8785 L 5.2638,79.5175 L 4,78.9282 L 2.8577,78.1284 L 1.8716,77.1423 L 1.0718,76 L 0.4825,74.7362 L 0.1215,73.3892 L 0,72 L 0,8 L 0.1215,6.6108 L 0.4825,5.2638 L 1.0718,4 L 1.8716,2.8577 L 2.8577,1.8716 L 4,1.0718 L 5.2638,0.4825 L 6.6108,0.1215 L 8,0 L 112,0 Z M 13.566,60.2101 L 12.5,60.6699 L 11.5688,61.3631 L 10.8226,62.2525 L 10.3015,63.2899 L 10.0338,64.4195 L 10.0338,65.5805 L 10.3015,66.7101 L 10.8226,67.7475 L 11.5688,68.6369 L 12.5,69.3301 L 13.566,69.7899 L 14.7093,69.9915 L 15.8682,69.924 L 16.9804,69.5911 L 17.9858,69.0106 L 18.8302,68.2139 L 19.4682,67.244 L 19.8652,66.1531 L 20,65 L 19.8652,63.8469 L 19.4682,62.756 L 18.8302,61.7861 L 17.9858,60.9894 L 16.9804,60.4089 L 15.8682,60.076 L 14.7093,60.0085 Z M 103.566,60.2101 L 102.5,60.6699 L 101.5688,61.3631 L 100.8226,62.2525 L 100.3015,63.2899 L 100.0338,64.4195 L 100.0338,65.5805 L 100.3015,66.7101 L 100.8226,67.7475 L 101.5688,68.6369 L 102.5,69.3301 L 103.566,69.7899 L 104.7093,69.9915 L 105.8682,69.924 L 106.9804,69.5911 L 107.9858,69.0106 L 108.8302,68.2139 L 109.4682,67.244 L 109.8652,66.1531 L 110,65 L 109.8652,63.8469 L 109.4682,62.756 L 108.8302,61.7861 L 107.9858,60.9894 L 106.9804,60.4089 L 105.8682,60.076 L 104.7093,60.0085 Z M 40,30 L 40,30.0342 L 39.1742,30.0342 L 37.5451,30.306 L 35.983,30.8423 L 34.5305,31.6283 L 33.2272,32.6428 L 32.1086,33.8579 L 31.2053,35.2405 L 30.5418,36.753 L 30.1364,38.3541 L 30,40 L 30.1364,41.6459 L 30.5418,43.247 L 31.2053,44.7595 L 32.1086,46.1421 L 33.2272,47.3572 L 34.5305,48.3717 L 35.983,49.1577 L 37.5451,49.694 L 39.1742,49.9658 L 40,49.9658 L 40,50 L 80,50 L 80,49.9658 L 80.8258,49.9658 L 82.4549,49.694 L 84.017,49.1577 L 85.4695,48.3717 L 86.7728,47.3572 L 87.8914,46.1421 L 88.7947,44.7595 L 89.4582,43.247 L 89.8636,41.6459 L 90,40 L 89.8636,38.3541 L 89.4582,36.753 L 88.7947,35.2405 L 87.8914,33.8579 L 86.7728,32.6428 L 85.4695,31.6283 L 84.017,30.8423 L 82.4549,30.306 L 80.8258,30.0342 L 80,30.0342 L 80,30 Z M 13.566,10.2101 L 12.5,10.6699 L 11.5688,11.3631 L 10.8226,12.2525 L 10.3015,13.2899 L 10.0338,14.4195 L 10.0338,15.5805 L 10.3015,16.7101 L 10.8226,17.7475 L 11.5688,18.6369 L 12.5,19.3301 L 13.566,19.7899 L 14.7093,19.9915 L 15.8682,19.924 L 16.9804,19.5911 L 17.9858,19.0106 L 18.8302,18.2139 L 19.4682,17.244 L 19.8652,16.1531 L 20,15 L 19.8652,13.8469 L 19.4682,12.756 L 18.8302,11.7861 L 17.9858,10.9894 L 16.9804,10.4089 L 15.8682,10.076 L 14.7093,10.0085 Z M 103.566,10.2101 L 102.5,10.6699 L 101.5688,11.3631 L 100.8226,12.2525 L 100.3015,13.2899 L 100.0338,14.4195 L 100.0338,15.5805 L 100.3015,16.7101 L 100.8226,17.7475 L 101.5688,18.6369 L 102.5,19.3301 L 103.566,19.7899 L 104.7093,19.9915 L 105.8682,19.924 L 106.9804,19.5911 L 107.9858,19.0106 L 108.8302,18.2139 L 109.4682,17.244 L 109.8652,16.1531 L 110,15 L 109.8652,13.8469 L 109.4682,12.756 L 108.8302,11.7861 L 107.9858,10.9894 L 106.9804,10.4089 L 105.8682,10.076 L 104.7093,10.0085 Z" fill="#222222" fill-opacity="0.25" fill-rule="nonzero" stroke="#222222" stroke-width="0.1467"/>
</g>
</g></svg>