0
SECTION
2
HEADER
9
$ACADVER
1
AC1009
0
ENDSEC
0
SECTION
2
TABLES
0
TABLE
2
LAYER
70
4
0
LAYER
2
0
70
0
62
7
6
CONTINUOUS
0
LAYER
2
dims
70
0
62
8
6
CONTINUOUS
0
LAYER
2
labels
70
0
62
7
6
CONTINUOUS
0
LAYER
2
walls
70
0
62
7
6
CONTINUOUS
0
ENDTAB
0
ENDSEC
0
SECTION
2
ENTITIES
0
POLYLINE
8
walls
66
1
70
1
0
VERTEX
8
walls
10
1000
20
120
30
0
0
VERTEX
8
walls
10
120
20
120
30
0
0
VERTEX
8
walls
10
120
20
4880
30
0
0
VERTEX
8
walls
10
1250
20
4880
30
0
0
VERTEX
8
walls
10
1250
20
5120
30
0
0
VERTEX
8
walls
10
-120
20
5120
30
0
0
VERTEX
8
walls
10
-120
20
-120
30
0
0
VERTEX
8
walls
10
1000
20
-120
30
0
0
SEQEND
0
POLYLINE
8
walls
66
1
70
1
0
VERTEX
8
walls
10
8120
20
5120
30
0
0
VERTEX
8
walls
10
6900
20
5120
30
0
0
VERTEX
8
walls
10
6900
20
4880
30
0
0
VERTEX
8
walls
10
7880
20
4880
30
0
0
VERTEX
8
walls
10
7880
20
120
30
0
0
VERTEX
8
walls
10
7100
20
120
30
0
0
VERTEX
8
walls
10
7100
20
-120
30
0
0
VERTEX
8
walls
10
8120
20
-120
30
0
0
SEQEND
0
POLYLINE
8
walls
66
1
70
1
0
VERTEX
8
walls
10
5100
20
4880
30
0
0
VERTEX
8
walls
10
5100
20
5120
30
0
0
VERTEX
8
walls
10
2750
20
5120
30
0
0
VERTEX
8
walls
10
2750
20
4880
30
0
0
SEQEND
0
POLYLINE
8
walls
66
1
70
1
0
VERTEX
8
walls
10
5300
20
120
30
0
0
VERTEX
8
walls
10
2000
20
120
30
0
0
VERTEX
8
walls
10
2000
20
-120
30
0
0
VERTEX
8
walls
10
5300
20
-120
30
0
0
SEQEND
0
LINE
8
walls
10
1000
20
0
30
0
11
1000
21
1000
31
0
0
ARC
8
walls
10
1000
20
0
30
0
40
1000
50
0
51
90
0
LINE
8
walls
10
5300
20
0
30
0
11
7100
21
0
31
0
0
LINE
8
walls
10
5300
20
-120
30
0
11
5300
21
120
31
0
0
LINE
8
walls
10
7100
20
-120
30
0
11
7100
21
120
31
0
0
LINE
8
walls
10
6900
20
5000
30
0
11
5100
21
5000
31
0
0
LINE
8
walls
10
6900
20
5120
30
0
11
6900
21
4880
31
0
0
LINE
8
walls
10
5100
20
5120
30
0
11
5100
21
4880
31
0
0
LINE
8
walls
10
2750
20
5000
30
0
11
1250
21
5000
31
0
0
LINE
8
walls
10
2750
20
5120
30
0
11
2750
21
4880
31
0
0
LINE
8
walls
10
1250
20
5120
30
0
11
1250
21
4880
31
0
0
POLYLINE
8
walls
66
1
70
1
0
VERTEX
8
walls
10
5060
20
5000
30
0
0
VERTEX
8
walls
10
4940
20
5000
30
0
0
VERTEX
8
walls
10
4940
20
4550
30
0
0
VERTEX
8
walls
10
5060
20
4550
30
0
0
SEQEND
0
POLYLINE
8
walls
66
1
70
1
0
VERTEX
8
walls
10
5060
20
3650
30
0
0
VERTEX
8
walls
10
4940
20
3650
30
0
0
VERTEX
8
walls
10
4940
20
0
30
0
0
VERTEX
8
walls
10
5060
20
0
30
0
0
SEQEND
0
LINE
8
walls
10
5000
20
3650
30
0
11
4100
21
3650
31
0
0
ARC
8
walls
10
5000
20
3650
30
0
40
900
50
90
51
180
0
LINE
8
dims
10
0
20
-180
30
0
11
0
21
-1725
31
0
0
LINE
8
dims
10
8000
20
-180
30
0
11
8000
21
-1725
31
0
0
LINE
8
dims
10
-225
20
-1500
30
0
11
8225
21
-1500
31
0
0
LINE
8
dims
10
-95.459415
20
-1595.459415
30
0
11
95.459415
21
-1404.540585
31
0
0
LINE
8
dims
10
7904.540585
20
-1595.459415
30
0
11
8095.459415
21
-1404.540585
31
0
0
TEXT
8
dims
10
3291.25
20
-1680
30
0
40
450
1
8000
50
0
0
LINE
8
dims
10
0
20
-96
30
0
11
0
21
-920
31
0
0
LINE
8
dims
10
5000
20
-96
30
0
11
5000
21
-920
31
0
0
LINE
8
dims
10
-120
20
-800
30
0
11
5120
21
-800
31
0
0
LINE
8
dims
10
-50.911688
20
-850.911688
30
0
11
50.911688
21
-749.088312
31
0
0
LINE
8
dims
10
4949.088312
20
-850.911688
30
0
11
5050.911688
21
-749.088312
31
0
0
TEXT
8
dims
10
2122
20
-896
30
0
40
240
1
5000
50
0
0
LINE
8
dims
10
5000
20
-96
30
0
11
5000
21
-920
31
0
0
LINE
8
dims
10
8000
20
-96
30
0
11
8000
21
-920
31
0
0
LINE
8
dims
10
4880
20
-800
30
0
11
8120
21
-800
31
0
0
LINE
8
dims
10
4949.088312
20
-850.911688
30
0
11
5050.911688
21
-749.088312
31
0
0
LINE
8
dims
10
7949.088312
20
-850.911688
30
0
11
8050.911688
21
-749.088312
31
0
0
TEXT
8
dims
10
6122
20
-896
30
0
40
240
1
3000
50
0
0
LINE
8
dims
10
8096
20
0
30
0
11
8920
21
0
31
0
0
LINE
8
dims
10
8096
20
5000
30
0
11
8920
21
5000
31
0
0
LINE
8
dims
10
8800
20
-120
30
0
11
8800
21
5120
31
0
0
LINE
8
dims
10
8850.911688
20
-50.911688
30
0
11
8749.088312
21
50.911688
31
0
0
LINE
8
dims
10
8850.911688
20
4949.088312
30
0
11
8749.088312
21
5050.911688
31
0
0
TEXT
8
dims
10
8518
20
2500
30
0
40
240
1
5000
50
90
0
TEXT
8
labels
10
2000
20
2400
30
0
40
300
1
LIVING
50
0
0
TEXT
8
labels
10
5900
20
2400
30
0
40
300
1
BEDROOM
50
0
0
TEXT
8
labels
10
2600
20
-3000
30
0
40
400
1
STUDIO PLAN
50
0
0
ENDSEC
0
EOF
