0
SECTION
2
HEADER
9
$ACADVER
1
AC1009
0
ENDSEC
0
SECTION
2
TABLES
0
TABLE
2
LAYER
70
5
0
LAYER
2
0
70
0
62
7
6
CONTINUOUS
0
LAYER
2
dims
70
0
62
8
6
CONTINUOUS
0
LAYER
2
labels
70
0
62
7
6
CONTINUOUS
0
LAYER
2
model
70
0
62
7
6
CONTINUOUS
0
LAYER
2
plan
70
0
62
7
6
CONTINUOUS
0
ENDTAB
0
ENDSEC
0
SECTION
2
ENTITIES
0
POLYLINE
8
plan
66
1
70
1
0
VERTEX
8
plan
10
0
20
0
30
0
0
VERTEX
8
plan
10
21000
20
0
30
0
0
VERTEX
8
plan
10
21000
20
19000
30
0
0
VERTEX
8
plan
10
0
20
19000
30
0
0
SEQEND
0
CIRCLE
8
plan
10
2500
20
2500
30
0
40
170
0
CIRCLE
8
plan
10
6500
20
2500
30
0
40
170
0
CIRCLE
8
plan
10
10500
20
2500
30
0
40
170
0
CIRCLE
8
plan
10
14500
20
2500
30
0
40
170
0
CIRCLE
8
plan
10
18500
20
2500
30
0
40
170
0
CIRCLE
8
plan
10
2500
20
7100
30
0
40
170
0
CIRCLE
8
plan
10
6500
20
7100
30
0
40
170
0
CIRCLE
8
plan
10
10500
20
7100
30
0
40
170
0
CIRCLE
8
plan
10
14500
20
7100
30
0
40
170
0
CIRCLE
8
plan
10
18500
20
7100
30
0
40
170
0
CIRCLE
8
plan
10
2500
20
11700
30
0
40
170
0
CIRCLE
8
plan
10
6500
20
11700
30
0
40
170
0
CIRCLE
8
plan
10
10500
20
11700
30
0
40
170
0
CIRCLE
8
plan
10
14500
20
11700
30
0
40
170
0
CIRCLE
8
plan
10
18500
20
11700
30
0
40
170
0
CIRCLE
8
plan
10
2500
20
16300
30
0
40
170
0
CIRCLE
8
plan
10
6500
20
16300
30
0
40
170
0
CIRCLE
8
plan
10
10500
20
16300
30
0
40
170
0
CIRCLE
8
plan
10
14500
20
16300
30
0
40
170
0
CIRCLE
8
plan
10
18500
20
16300
30
0
40
170
0
POLYLINE
8
plan
66
1
70
1
0
VERTEX
8
plan
10
3000
20
3200
30
0
0
VERTEX
8
plan
10
6600
20
3200
30
0
0
VERTEX
8
plan
10
6600
20
6200
30
0
0
VERTEX
8
plan
10
3000
20
6200
30
0
0
SEQEND
0
LINE
8
dims
10
0
20
-264
30
0
11
0
21
-2530
31
0
0
LINE
8
dims
10
21000
20
-264
30
0
11
21000
21
-2530
31
0
0
LINE
8
dims
10
-330
20
-2200
30
0
11
21330
21
-2200
31
0
0
LINE
8
dims
10
-140.007143
20
-2340.007143
30
0
11
140.007143
21
-2059.992857
31
0
0
LINE
8
dims
10
20859.992857
20
-2340.007143
30
0
11
21140.007143
21
-2059.992857
31
0
0
TEXT
8
dims
10
9180
20
-2464
30
0
40
660
1
21000
50
0
0
LINE
8
dims
10
21216
20
0
30
0
11
23070
21
0
31
0
0
LINE
8
dims
10
21216
20
19000
30
0
11
23070
21
19000
31
0
0
LINE
8
dims
10
22800
20
-270
30
0
11
22800
21
19270
31
0
0
LINE
8
dims
10
22914.551299
20
-114.551299
30
0
11
22685.448701
21
114.551299
31
0
0
LINE
8
dims
10
22914.551299
20
18885.448701
30
0
11
22685.448701
21
19114.551299
31
0
0
TEXT
8
dims
10
21936
20
9500
30
0
40
540
1
19000
50
90
0
TEXT
8
labels
10
3800
20
-4200
30
0
40
700
1
VILLA SAVOYE - CONCEPT STUDY
50
0
0
TEXT
8
labels
10
7600
20
9300
30
0
40
380
1
pilotis / free plan / ribbon windows / roof garden
50
0
0
ENDSEC
0
EOF
